<svg width="133" height="35" viewBox="0 0 133 35" fill="none" xmlns="http://www.w3.org/2000/svg">
<path d="M8.92871 34.2612H6.57275C5.32764 32.3813 4.37956 30.4282 3.72852 28.4019C3.07747 26.3755 2.75195 24.4142 2.75195 22.5181C2.75195 20.1662 3.15479 17.9404 3.96045 15.8408C4.66032 14.0179 5.54736 12.3374 6.62158 10.7993H8.96533C7.85042 13.2651 7.08138 15.3647 6.6582 17.0981C6.24316 18.8234 6.03564 20.6545 6.03564 22.5913C6.03564 23.9259 6.15771 25.2931 6.40186 26.6929C6.65413 28.0926 6.99593 29.4232 7.42725 30.6846C7.71208 31.5146 8.21257 32.7069 8.92871 34.2612Z" fill="black"/>
<path d="M20.9404 23.9341L25.6646 24.4712C25.4041 25.4559 24.9769 26.3104 24.3828 27.0347C23.7887 27.7508 23.0278 28.3083 22.1001 28.707C21.1805 29.1058 20.0086 29.3052 18.5845 29.3052C17.2091 29.3052 16.0617 29.179 15.1421 28.9268C14.2306 28.6663 13.4453 28.2513 12.7861 27.6816C12.127 27.1038 11.6102 26.4284 11.2358 25.6553C10.8615 24.8822 10.6743 23.8568 10.6743 22.5791C10.6743 21.2445 10.9022 20.1336 11.3579 19.2466C11.6916 18.5955 12.1473 18.0137 12.7251 17.501C13.3029 16.9801 13.897 16.5936 14.5073 16.3413C15.4757 15.9425 16.7168 15.7432 18.2305 15.7432C20.3464 15.7432 21.9577 16.1216 23.0645 16.8784C24.1794 17.6353 24.9606 18.742 25.4082 20.1987L20.7329 20.8213C20.5864 20.2679 20.3179 19.8529 19.9272 19.5762C19.5448 19.2913 19.028 19.1489 18.377 19.1489C17.555 19.1489 16.8877 19.446 16.375 20.04C15.8704 20.626 15.6182 21.5171 15.6182 22.7134C15.6182 23.7795 15.8704 24.5892 16.375 25.1426C16.8796 25.696 17.5225 25.9727 18.3037 25.9727C18.9548 25.9727 19.5 25.8058 19.9395 25.4722C20.387 25.1385 20.7207 24.6258 20.9404 23.9341ZM28.1304 11.1045H33.0986V14.4858H28.1304V11.1045ZM28.1304 16.0361H33.0986V29H28.1304V16.0361ZM42.2661 11.1045V16.0361H45.0005V19.6616H42.2661V24.2637C42.2661 24.8171 42.319 25.1833 42.4248 25.3623C42.5876 25.639 42.8724 25.7773 43.2793 25.7773C43.6455 25.7773 44.1582 25.6715 44.8174 25.46L45.1836 28.8901C43.9548 29.1587 42.8073 29.293 41.7412 29.293C40.5042 29.293 39.5928 29.1343 39.0068 28.8169C38.4209 28.4995 37.9855 28.0194 37.7007 27.3765C37.424 26.7254 37.2856 25.6756 37.2856 24.2271V19.6616H35.4546V16.0361H37.2856V13.6558L42.2661 11.1045ZM61.7729 23.751H51.812C51.9015 24.5485 52.1172 25.1426 52.459 25.5332C52.9391 26.0947 53.5658 26.3755 54.3389 26.3755C54.8271 26.3755 55.291 26.2534 55.7305 26.0093C55.999 25.8547 56.2879 25.582 56.5972 25.1914L61.4922 25.6431C60.7435 26.9451 59.8402 27.881 58.7822 28.4507C57.7243 29.0122 56.2065 29.293 54.229 29.293C52.5119 29.293 51.161 29.0529 50.1763 28.5728C49.1916 28.0845 48.3737 27.3154 47.7227 26.2656C47.0798 25.2077 46.7583 23.9666 46.7583 22.5425C46.7583 20.5161 47.4053 18.8763 48.6992 17.623C50.0013 16.3698 51.7957 15.7432 54.0825 15.7432C55.938 15.7432 57.4028 16.0239 58.4771 16.5854C59.5513 17.147 60.3691 17.9608 60.9307 19.0269C61.4922 20.0929 61.7729 21.4805 61.7729 23.1895V23.751ZM56.7192 21.3706C56.6216 20.4103 56.3612 19.7227 55.938 19.3076C55.5229 18.8926 54.9736 18.6851 54.29 18.6851C53.5007 18.6851 52.87 18.9984 52.3979 19.625C52.0968 20.0156 51.9056 20.5975 51.8242 21.3706H56.7192Z" fill="#009900"/>
<path d="M68.146 11.1045V17.6841C69.2528 16.3901 70.5752 15.7432 72.1133 15.7432C72.9027 15.7432 73.6147 15.8896 74.2495 16.1826C74.8843 16.4756 75.3604 16.8499 75.6777 17.3057C76.0033 17.7614 76.223 18.266 76.3369 18.8193C76.459 19.3727 76.52 20.2313 76.52 21.395V29H73.0898V22.1519C73.0898 20.7928 73.0247 19.9302 72.8945 19.564C72.7643 19.1978 72.5324 18.9089 72.1987 18.6973C71.8732 18.4775 71.4622 18.3677 70.9658 18.3677C70.3962 18.3677 69.8875 18.506 69.4399 18.7827C68.9924 19.0594 68.6628 19.4785 68.4512 20.04C68.2477 20.5934 68.146 21.4154 68.146 22.5059V29H64.7158V11.1045H68.146ZM88.5439 29V27.0591C88.0719 27.7508 87.4494 28.2961 86.6763 28.6948C85.9113 29.0936 85.1016 29.293 84.2471 29.293C83.3763 29.293 82.5951 29.1017 81.9033 28.7192C81.2116 28.3368 80.7111 27.7996 80.4019 27.1079C80.0926 26.4162 79.938 25.46 79.938 24.2393V16.0361H83.3682V21.9932C83.3682 23.8161 83.4292 24.9351 83.5513 25.3501C83.6815 25.757 83.9134 26.0825 84.2471 26.3267C84.5807 26.5627 85.0039 26.6807 85.5166 26.6807C86.1025 26.6807 86.6274 26.522 87.0913 26.2046C87.5552 25.8791 87.8726 25.4803 88.0435 25.0083C88.2144 24.5282 88.2998 23.3604 88.2998 21.5049V16.0361H91.73V29H88.5439ZM95.1479 29V11.1045H98.5781V17.5498C99.6361 16.3454 100.889 15.7432 102.338 15.7432C103.917 15.7432 105.223 16.3169 106.256 17.4644C107.29 18.6037 107.807 20.2435 107.807 22.3838C107.807 24.5973 107.278 26.3022 106.22 27.4985C105.17 28.6948 103.892 29.293 102.387 29.293C101.646 29.293 100.914 29.1099 100.189 28.7437C99.4733 28.3693 98.8548 27.82 98.334 27.0957V29H95.1479ZM98.5537 22.2373C98.5537 23.5801 98.7653 24.5729 99.1885 25.2158C99.7826 26.1273 100.572 26.583 101.557 26.583C102.313 26.583 102.956 26.2616 103.485 25.6187C104.022 24.9676 104.291 23.9463 104.291 22.5547C104.291 21.0736 104.022 20.0075 103.485 19.3564C102.948 18.6973 102.261 18.3677 101.422 18.3677C100.6 18.3677 99.9168 18.6891 99.3716 19.332C98.8263 19.9668 98.5537 20.9352 98.5537 22.2373ZM109.625 34.2612C110.301 32.8127 110.777 31.7018 111.054 30.9287C111.33 30.1556 111.587 29.2645 111.823 28.2554C112.059 27.2463 112.234 26.29 112.348 25.3867C112.462 24.4753 112.519 23.5435 112.519 22.5913C112.519 20.6545 112.311 18.8234 111.896 17.0981C111.481 15.3647 110.716 13.2651 109.601 10.7993H111.933C113.161 12.549 114.114 14.4045 114.789 16.3657C115.473 18.327 115.814 20.3167 115.814 22.335C115.814 24.0358 115.546 25.8587 115.009 27.8037C114.398 29.9847 113.393 32.1372 111.994 34.2612H109.625ZM118.903 29V25.5698H122.333V29H118.903Z" fill="black"/>
<mask id="path-3-outside-1_1_51853" maskUnits="userSpaceOnUse" x="126" y="3" width="7" height="13" fill="black">
<rect fill="white" x="126" y="3" width="7" height="13"/>
<path d="M131.729 15H129.67V7.24365C128.918 7.94678 128.032 8.4668 127.012 8.80371V6.93604C127.549 6.76025 128.132 6.42822 128.762 5.93994C129.392 5.44678 129.824 4.87305 130.059 4.21875H131.729V15Z"/>
</mask>
<path d="M131.729 15H129.67V7.24365C128.918 7.94678 128.032 8.4668 127.012 8.80371V6.93604C127.549 6.76025 128.132 6.42822 128.762 5.93994C129.392 5.44678 129.824 4.87305 130.059 4.21875H131.729V15Z" fill="#009900"/>
<path d="M131.729 15V15.35H132.079V15H131.729ZM129.67 15H129.32V15.35H129.67V15ZM129.67 7.24365H130.02V6.43721L129.431 6.988L129.67 7.24365ZM127.012 8.80371H126.662V9.28784L127.121 9.13607L127.012 8.80371ZM127.012 6.93604L126.903 6.6034L126.662 6.68231V6.93604H127.012ZM128.762 5.93994L128.977 6.21656L128.978 6.21552L128.762 5.93994ZM130.059 4.21875V3.86875H129.812L129.729 4.10072L130.059 4.21875ZM131.729 4.21875H132.079V3.86875H131.729V4.21875ZM131.729 15V14.65H129.67V15V15.35H131.729V15ZM129.67 15H130.02V7.24365H129.67H129.32V15H129.67ZM129.67 7.24365L129.431 6.988C128.718 7.65497 127.877 8.14962 126.902 8.47136L127.012 8.80371L127.121 9.13607C128.188 8.78397 129.119 8.23859 129.909 7.4993L129.67 7.24365ZM127.012 8.80371H127.362V6.93604H127.012H126.662V8.80371H127.012ZM127.012 6.93604L127.121 7.26867C127.708 7.07644 128.327 6.72015 128.977 6.21656L128.762 5.93994L128.548 5.66332C127.938 6.1363 127.39 6.44407 126.903 6.6034L127.012 6.93604ZM128.762 5.93994L128.978 6.21552C129.652 5.68792 130.128 5.06223 130.388 4.33678L130.059 4.21875L129.729 4.10072C129.52 4.68387 129.132 5.20564 128.546 5.66436L128.762 5.93994ZM130.059 4.21875V4.56875H131.729V4.21875V3.86875H130.059V4.21875ZM131.729 4.21875H131.379V15H131.729H132.079V4.21875H131.729Z" fill="#009900" mask="url(#path-3-outside-1_1_51853)"/>
</svg>
